<svg id="mermaid-1787876859749" width="100%" xmlns="http://www.w3.org/2000/svg" style="max-width: 100%; height: auto;" viewBox="-8 -8 2031.69921875 1066.695556640625" role="graphics-document document" aria-roledescription="flowchart-v2"><style>#mermaid-1787876859749{font-family:monospace;font-size:16px;fill:#333;}#mermaid-1787876859749 .error-icon{fill:#552222;}#mermaid-1787876859749 .error-text{fill:#552222;stroke:#552222;}#mermaid-1787876859749 .edge-thickness-normal{stroke-width:2px;}#mermaid-1787876859749 .edge-thickness-thick{stroke-width:3.5px;}#mermaid-1787876859749 .edge-pattern-solid{stroke-dasharray:0;}#mermaid-1787876859749 .edge-pattern-dashed{stroke-dasharray:3;}#mermaid-1787876859749 .edge-pattern-dotted{stroke-dasharray:2;}#mermaid-1787876859749 .marker{fill:#333333;stroke:#333333;}#mermaid-1787876859749 .marker.cross{stroke:#333333;}#mermaid-1787876859749 svg{font-family:monospace;font-size:16px;}#mermaid-1787876859749 .label{font-family:monospace;color:#333;}#mermaid-1787876859749 .cluster-label text{fill:#333;}#mermaid-1787876859749 .cluster-label span,#mermaid-1787876859749 p{color:#333;}#mermaid-1787876859749 .label text,#mermaid-1787876859749 span,#mermaid-1787876859749 p{fill:#333;color:#333;}#mermaid-1787876859749 .node rect,#mermaid-1787876859749 .node circle,#mermaid-1787876859749 .node ellipse,#mermaid-1787876859749 .node polygon,#mermaid-1787876859749 .node path{fill:#ECECFF;stroke:#9370DB;stroke-width:1px;}#mermaid-1787876859749 .flowchart-label text{text-anchor:middle;}#mermaid-1787876859749 .node .katex path{fill:#000;stroke:#000;stroke-width:1px;}#mermaid-1787876859749 .node .label{text-align:center;}#mermaid-1787876859749 .node.clickable{cursor:pointer;}#mermaid-1787876859749 .arrowheadPath{fill:#333333;}#mermaid-1787876859749 .edgePath .path{stroke:#333333;stroke-width:2.0px;}#mermaid-1787876859749 .flowchart-link{stroke:#333333;fill:none;}#mermaid-1787876859749 .edgeLabel{background-color:#e8e8e8;text-align:center;}#mermaid-1787876859749 .edgeLabel rect{opacity:0.5;background-color:#e8e8e8;fill:#e8e8e8;}#mermaid-1787876859749 .labelBkg{background-color:rgba(232, 232, 232, 0.5);}#mermaid-1787876859749 .cluster rect{fill:#ffffde;stroke:#aaaa33;stroke-width:1px;}#mermaid-1787876859749 .cluster text{fill:#333;}#mermaid-1787876859749 .cluster span,#mermaid-1787876859749 p{color:#333;}#mermaid-1787876859749 div.mermaidTooltip{position:absolute;text-align:center;max-width:200px;padding:2px;font-family:monospace;font-size:12px;background:hsl(80, 100%, 96.2745098039%);border:1px solid #aaaa33;border-radius:2px;pointer-events:none;z-index:100;}#mermaid-1787876859749 .flowchartTitleText{text-anchor:middle;font-size:18px;fill:#333;}#mermaid-1787876859749 :root{--mermaid-font-family:monospace;}#mermaid-1787876859749 .g&gt;*{fill:#1a73e8!important;stroke:#174ea6!important;color:#fff!important;font-weight:bold!important;}#mermaid-1787876859749 .g span{fill:#1a73e8!important;stroke:#174ea6!important;color:#fff!important;font-weight:bold!important;}#mermaid-1787876859749 .g tspan{fill:#fff!important;}#mermaid-1787876859749 .store&gt;*{fill:#e8f0fe!important;stroke:#1a73e8!important;color:#174ea6!important;}#mermaid-1787876859749 .store span{fill:#e8f0fe!important;stroke:#1a73e8!important;color:#174ea6!important;}#mermaid-1787876859749 .store tspan{fill:#174ea6!important;}#mermaid-1787876859749 .key&gt;*{fill:#fef7e0!important;stroke:#f9ab00!important;color:#3c4043!important;font-weight:bold!important;}#mermaid-1787876859749 .key span{fill:#fef7e0!important;stroke:#f9ab00!important;color:#3c4043!important;font-weight:bold!important;}#mermaid-1787876859749 .key tspan{fill:#3c4043!important;}</style><g><marker id="mermaid-1787876859749_flowchart-pointEnd" class="marker flowchart" viewBox="0 0 10 10" refX="6" refY="5" markerUnits="userSpaceOnUse" markerWidth="12" markerHeight="12" orient="auto"><path d="M 0 0 L 10 5 L 0 10 z" class="arrowMarkerPath" style="stroke-width: 1; stroke-dasharray: 1, 0;"></path></marker><marker id="mermaid-1787876859749_flowchart-pointStart" class="marker flowchart" viewBox="0 0 10 10" refX="4.5" refY="5" markerUnits="userSpaceOnUse" markerWidth="12" markerHeight="12" orient="auto"><path d="M 0 5 L 10 10 L 10 0 z" class="arrowMarkerPath" style="stroke-width: 1; stroke-dasharray: 1, 0;"></path></marker><marker id="mermaid-1787876859749_flowchart-circleEnd" class="marker flowchart" viewBox="0 0 10 10" refX="11" refY="5" markerUnits="userSpaceOnUse" markerWidth="11" markerHeight="11" orient="auto"><circle cx="5" cy="5" r="5" class="arrowMarkerPath" style="stroke-width: 1; stroke-dasharray: 1, 0;"></circle></marker><marker id="mermaid-1787876859749_flowchart-circleStart" class="marker flowchart" viewBox="0 0 10 10" refX="-1" refY="5" markerUnits="userSpaceOnUse" markerWidth="11" markerHeight="11" orient="auto"><circle cx="5" cy="5" r="5" class="arrowMarkerPath" style="stroke-width: 1; stroke-dasharray: 1, 0;"></circle></marker><marker id="mermaid-1787876859749_flowchart-crossEnd" class="marker cross flowchart" viewBox="0 0 11 11" refX="12" refY="5.2" markerUnits="userSpaceOnUse" markerWidth="11" markerHeight="11" orient="auto"><path d="M 1,1 l 9,9 M 10,1 l -9,9" class="arrowMarkerPath" style="stroke-width: 2; stroke-dasharray: 1, 0;"></path></marker><marker id="mermaid-1787876859749_flowchart-crossStart" class="marker cross flowchart" viewBox="0 0 11 11" refX="-1" refY="5.2" markerUnits="userSpaceOnUse" markerWidth="11" markerHeight="11" orient="auto"><path d="M 1,1 l 9,9 M 10,1 l -9,9" class="arrowMarkerPath" style="stroke-width: 2; stroke-dasharray: 1, 0;"></path></marker><g class="root"><g class="clusters"><g class="cluster default flowchart-label" id="STATE"><rect style="" rx="0" ry="0" x="31.673828125" y="870" width="1974.392578125" height="180.69549560546875"></rect><g class="cluster-label" transform="translate(936.9912109375, 870)"><foreignObject width="163.7578125" height="24"><div xmlns="http://www.w3.org/1999/xhtml" style="display: inline-block; white-space: nowrap;"><span class="nodeLabel">State &amp; telemetry</span></div></foreignObject></g></g><g class="cluster default flowchart-label" id="GOOGLE"><rect style="" rx="0" ry="0" x="1307.36328125" y="616" width="708.3359375" height="180"></rect><g class="cluster-label" transform="translate(1618.18359375, 616)"><foreignObject width="86.6953125" height="24"><div xmlns="http://www.w3.org/1999/xhtml" style="display: inline-block; white-space: nowrap;"><span class="nodeLabel">Google AI</span></div></foreignObject></g></g><g class="cluster default flowchart-label" id="ACT"><rect style="" rx="0" ry="0" x="1081.287109375" y="0" width="580.611328125" height="289"></rect><g class="cluster-label" transform="translate(1318.6123046875, 0)"><foreignObject width="105.9609375" height="24"><div xmlns="http://www.w3.org/1999/xhtml" style="display: inline-block; white-space: nowrap;"><span class="nodeLabel">4 · It acts</span></div></foreignObject></g></g><g class="cluster default flowchart-label" id="SPLIT"><rect style="" rx="0" ry="0" x="586.986328125" y="363" width="700.376953125" height="433"></rect><g class="cluster-label" transform="translate(778.2333984375, 363)"><foreignObject width="317.8828125" height="24"><div xmlns="http://www.w3.org/1999/xhtml" style="display: inline-block; white-space: nowrap;"><span class="nodeLabel">3 · The split everything rests on</span></div></foreignObject></g></g><g class="cluster default flowchart-label" id="AUTO"><rect style="" rx="0" ry="0" x="0" y="0" width="445.474609375" height="289"></rect><g class="cluster-label" transform="translate(136.0419921875, 0)"><foreignObject width="173.390625" height="24"><div xmlns="http://www.w3.org/1999/xhtml" style="display: inline-block; white-space: nowrap;"><span class="nodeLabel">2 · Or nobody asks</span></div></foreignObject></g></g><g class="cluster default flowchart-label" id="HUMAN"><rect style="" rx="0" ry="0" x="558.66015625" y="133" width="458.822265625" height="156"></rect><g class="cluster-label" transform="translate(735.0908203125, 133)"><foreignObject width="105.9609375" height="24"><div xmlns="http://www.w3.org/1999/xhtml" style="display: inline-block; white-space: nowrap;"><span class="nodeLabel">1 · You ask</span></div></foreignObject></g></g></g><g class="edgePaths"><path d="M280.248,83L280.248,87.167C280.248,91.333,280.248,99.667,280.248,108C280.248,116.333,280.248,124.667,280.248,132.117C280.248,139.567,280.248,146.133,280.248,149.417L280.248,152.7" id="L-SCHED-WATCH-0" class=" edge-thickness-normal edge-pattern-solid flowchart-link LS-SCHED LE-WATCH" style="fill:none;" marker-end="url(#mermaid-1787876859749_flowchart-pointEnd)"></path><path d="M892.818,518L879.017,526.167C865.215,534.333,837.613,550.667,823.811,567C810.01,583.333,810.01,599.667,810.01,611.117C810.01,622.567,810.01,629.133,810.01,632.417L810.01,635.7" id="L-PERC-JUDGE-0" class=" edge-thickness-thick edge-pattern-solid flowchart-link LS-PERC LE-JUDGE" style="stroke-width: 3.5px;fill:none;" marker-end="url(#mermaid-1787876859749_flowchart-pointEnd)"></path><path d="M1456.237,83L1446.275,87.167C1436.314,91.333,1416.39,99.667,1406.428,108C1396.467,116.333,1396.467,124.667,1396.467,136.117C1396.467,147.567,1396.467,162.133,1396.467,169.417L1396.467,176.7" id="L-TOUR-MAPS-0" class=" edge-thickness-normal edge-pattern-solid flowchart-link LS-TOUR LE-MAPS" style="fill:none;" marker-end="url(#mermaid-1787876859749_flowchart-pointEnd)"></path><path d="M176.16,264L167.977,268.167C159.794,272.333,143.428,280.667,135.245,291C127.063,301.333,127.063,313.667,127.063,326C127.063,338.333,127.063,350.667,127.063,371.833C127.063,393,127.063,423,127.063,457C127.063,491,127.063,529,127.063,556.167C127.063,583.333,127.063,599.667,127.063,622.833C127.063,646,127.063,676,127.063,706C127.063,736,127.063,766,127.063,787.167C127.063,808.333,127.063,820.667,127.063,833C127.063,845.333,127.063,857.667,148.243,871.554C169.424,885.442,211.785,900.885,232.965,908.606L254.146,916.327" id="L-WATCH-FS-0" class=" edge-thickness-normal edge-pattern-dotted flowchart-link LS-WATCH LE-FS" style="fill:none;stroke-width:2px;stroke-dasharray:3;" marker-end="url(#mermaid-1787876859749_flowchart-pointEnd)"></path><path d="M1029.712,522.943L1032.551,530.286C1035.391,537.629,1041.069,552.314,1043.909,567.824C1046.748,583.333,1046.748,599.667,1095.149,616.931C1143.55,634.195,1240.352,652.39,1288.753,661.488L1337.154,670.585" id="L-PERC-FLASH-0" class=" edge-thickness-normal edge-pattern-solid flowchart-link LS-PERC LE-FLASH" style="fill:none;" marker-start="url(#mermaid-1787876859749_flowchart-pointStart)" marker-end="url(#mermaid-1787876859749_flowchart-pointEnd)"></path><path d="M1525.57,83L1525.57,87.167C1525.57,91.333,1525.57,99.667,1525.57,108C1525.57,116.333,1525.57,124.667,1525.57,141.833C1525.57,159,1525.57,185,1525.57,211C1525.57,237,1525.57,263,1525.57,282.167C1525.57,301.333,1525.57,313.667,1525.57,326C1525.57,338.333,1525.57,350.667,1525.57,371.833C1525.57,393,1525.57,423,1525.57,457C1525.57,491,1525.57,529,1525.57,556.167C1525.57,583.333,1525.57,599.667,1525.57,615.117C1525.57,630.567,1525.57,645.133,1525.57,652.417L1525.57,659.7" id="L-TOUR-FLASH-0" class=" edge-thickness-normal edge-pattern-dotted flowchart-link LS-TOUR LE-FLASH" style="fill:none;stroke-width:2px;stroke-dasharray:3;" marker-end="url(#mermaid-1787876859749_flowchart-pointEnd)"></path><path d="M1869.738,735L1869.738,745.167C1869.738,755.333,1869.738,775.667,1869.738,792C1869.738,808.333,1869.738,820.667,1869.738,833C1869.738,845.333,1869.738,857.667,1869.738,869.309C1869.738,880.951,1869.738,891.903,1869.738,897.378L1869.738,902.854" id="L-IMG-CACHE-0" class=" edge-thickness-normal edge-pattern-dotted flowchart-link LS-IMG LE-CACHE" style="fill:none;stroke-width:2px;stroke-dasharray:3;" marker-end="url(#mermaid-1787876859749_flowchart-pointEnd)"></path><path d="M1095.657,521.132L1106.091,528.777C1116.525,536.422,1137.392,551.711,1147.826,567.522C1158.26,583.333,1158.26,599.667,1158.26,622.833C1158.26,646,1158.26,676,1158.26,706C1158.26,736,1158.26,766,1158.26,787.167C1158.26,808.333,1158.26,820.667,1158.26,833C1158.26,845.333,1158.26,857.667,1259.075,876.635C1359.891,895.604,1561.522,921.209,1662.337,934.011L1763.152,946.813" id="L-PERC-CACHE-0" class=" edge-thickness-normal edge-pattern-solid flowchart-link LS-PERC LE-CACHE" style="fill:none;" marker-start="url(#mermaid-1787876859749_flowchart-pointStart)" marker-end="url(#mermaid-1787876859749_flowchart-pointEnd)"></path><path d="M810.01,776.3L810.01,779.583C810.01,782.867,810.01,789.433,810.01,798.883C810.01,808.333,810.01,820.667,810.01,833C810.01,845.333,810.01,857.667,757.653,874.705C705.296,891.743,600.583,913.486,548.226,924.358L495.869,935.23" id="L-JUDGE-FS-0" class=" edge-thickness-normal edge-pattern-solid flowchart-link LS-JUDGE LE-FS" style="fill:none;" marker-start="url(#mermaid-1787876859749_flowchart-pointStart)" marker-end="url(#mermaid-1787876859749_flowchart-pointEnd)"></path><path d="M705.75,252L699.541,258.167C693.333,264.333,680.915,276.667,674.707,289C668.498,301.333,668.498,313.667,632.314,326C596.13,338.333,523.761,350.667,487.577,371.833C451.393,393,451.393,423,451.393,457C451.393,491,451.393,529,451.393,556.167C451.393,583.333,451.393,599.667,451.393,622.833C451.393,646,451.393,676,451.393,706C451.393,736,451.393,766,451.393,787.167C451.393,808.333,451.393,820.667,451.393,833C451.393,845.333,451.393,857.667,448.41,867.634C445.428,877.601,439.463,885.203,436.481,889.003L433.499,892.804" id="L-UI-FS-0" class=" edge-thickness-normal edge-pattern-dotted flowchart-link LS-UI LE-FS" style="fill:none;stroke-width:2px;stroke-dasharray:3;" marker-end="url(#mermaid-1787876859749_flowchart-pointEnd)"></path><path d="M238.591,264L235.316,268.167C232.041,272.333,225.491,280.667,222.216,291C218.941,301.333,218.941,313.667,218.941,326C218.941,338.333,218.941,350.667,218.941,371.833C218.941,393,218.941,423,218.941,457C218.941,491,218.941,529,218.941,556.167C218.941,583.333,218.941,599.667,218.941,622.833C218.941,646,218.941,676,218.941,706C218.941,736,218.941,766,218.941,787.167C218.941,808.333,218.941,820.667,218.941,833C218.941,845.333,218.941,857.667,333.058,876.823C447.174,895.979,675.406,921.958,789.522,934.948L903.638,947.937" id="L-WATCH-TRACE-0" class=" edge-thickness-normal edge-pattern-dotted flowchart-link LS-WATCH LE-TRACE" style="fill:none;stroke-width:2px;stroke-dasharray:3;" marker-end="url(#mermaid-1787876859749_flowchart-pointEnd)"></path><path d="M836.712,252L850.2,258.167C863.689,264.333,890.667,276.667,904.156,289C917.645,301.333,917.645,313.667,917.645,325.117C917.645,336.567,917.645,347.133,917.645,352.417L917.645,357.7" id="L-UI-SPLIT-0" class=" edge-thickness-normal edge-pattern-solid flowchart-link LS-UI LE-SPLIT" style="fill:none;" marker-end="url(#mermaid-1787876859749_flowchart-pointEnd)"></path><path d="M329.588,264L333.467,268.167C337.346,272.333,345.103,280.667,348.982,291C352.861,301.333,352.861,313.667,411.256,325.909C469.65,338.151,586.438,350.301,644.832,356.376L703.226,362.452" id="L-WATCH-SPLIT-0" class=" edge-thickness-normal edge-pattern-solid flowchart-link LS-WATCH LE-SPLIT" style="fill:none;" marker-end="url(#mermaid-1787876859749_flowchart-pointEnd)"></path><path d="M1267.363,363L1267.363,356.833C1267.363,350.667,1267.363,338.333,1267.363,326.883C1267.363,315.433,1267.363,304.867,1267.363,299.583L1267.363,294.3" id="L-SPLIT-ACT-0" class=" edge-thickness-normal edge-pattern-solid flowchart-link LS-SPLIT LE-ACT" style="fill:none;" marker-end="url(#mermaid-1787876859749_flowchart-pointEnd)"></path><path d="M1081.287,169.066L896.99,183.075" id="L-ACT-UI-0" class=" edge-thickness-normal edge-pattern-solid flowchart-link LS-ACT LE-UI" style="fill:none;" marker-end="url(#mermaid-1787876859749_flowchart-pointEnd)"></path><path d="M1178.26,796L1178.26,802.167C1178.26,808.333,1178.26,820.667,1178.26,833C1178.26,845.333,1178.26,857.667,1160.295,873.635C1142.33,889.603,1106.401,909.206,1088.436,919.008L1070.471,928.809" id="L-SPLIT-TRACE-0" class=" edge-thickness-normal edge-pattern-dotted flowchart-link LS-SPLIT LE-TRACE" style="fill:none;stroke-width:2px;stroke-dasharray:3;" marker-end="url(#mermaid-1787876859749_flowchart-pointEnd)"></path></g><g class="edgeLabels"><g class="edgeLabel"><g class="label" transform="translate(0, 0)"><foreignObject width="0" height="0"><div xmlns="http://www.w3.org/1999/xhtml" style="display: inline-block; white-space: nowrap;"><span class="edgeLabel"></span></div></foreignObject></g></g><g class="edgeLabel" transform="translate(810.009765625, 567)"><g class="label" transform="translate(-125.2265625, -24)"><foreignObject width="250.453125" height="48"><div xmlns="http://www.w3.org/1999/xhtml" style="display: inline-block; white-space: nowrap;"><span class="edgeLabel">cached per property<br>re-rank = 23ms, zero calls</span></div></foreignObject></g></g><g class="edgeLabel"><g class="label" transform="translate(0, 0)"><foreignObject width="0" height="0"><div xmlns="http://www.w3.org/1999/xhtml" style="display: inline-block; white-space: nowrap;"><span class="edgeLabel"></span></div></foreignObject></g></g><g class="edgeLabel" transform="translate(127.0625, 567)"><g class="label" transform="translate(-24.08203125, -12)"><foreignObject width="48.1640625" height="24"><div xmlns="http://www.w3.org/1999/xhtml" style="display: inline-block; white-space: nowrap;"><span class="edgeLabel">brief</span></div></foreignObject></g></g><g class="edgeLabel" transform="translate(1046.748046875, 567)"><g class="label" transform="translate(-91.51171875, -12)"><foreignObject width="183.0234375" height="24"><div xmlns="http://www.w3.org/1999/xhtml" style="display: inline-block; white-space: nowrap;"><span class="edgeLabel">floor plan + aerial</span></div></foreignObject></g></g><g class="edgeLabel"><g class="label" transform="translate(0, 0)"><foreignObject width="0" height="0"><div xmlns="http://www.w3.org/1999/xhtml" style="display: inline-block; white-space: nowrap;"><span class="edgeLabel"></span></div></foreignObject></g></g><g class="edgeLabel"><g class="label" transform="translate(0, 0)"><foreignObject width="0" height="0"><div xmlns="http://www.w3.org/1999/xhtml" style="display: inline-block; white-space: nowrap;"><span class="edgeLabel"></span></div></foreignObject></g></g><g class="edgeLabel"><g class="label" transform="translate(0, 0)"><foreignObject width="0" height="0"><div xmlns="http://www.w3.org/1999/xhtml" style="display: inline-block; white-space: nowrap;"><span class="edgeLabel"></span></div></foreignObject></g></g><g class="edgeLabel" transform="translate(810.009765625, 833)"><g class="label" transform="translate(-101.14453125, -12)"><foreignObject width="202.2890625" height="24"><div xmlns="http://www.w3.org/1999/xhtml" style="display: inline-block; white-space: nowrap;"><span class="edgeLabel">weights you taught it</span></div></foreignObject></g></g><g class="edgeLabel" transform="translate(451.392578125, 567)"><g class="label" transform="translate(-115.59375, -12)"><foreignObject width="231.1875" height="24"><div xmlns="http://www.w3.org/1999/xhtml" style="display: inline-block; white-space: nowrap;"><span class="edgeLabel">feedback → weight deltas</span></div></foreignObject></g></g><g class="edgeLabel"><g class="label" transform="translate(0, 0)"><foreignObject width="0" height="0"><div xmlns="http://www.w3.org/1999/xhtml" style="display: inline-block; white-space: nowrap;"><span class="edgeLabel"></span></div></foreignObject></g></g><g class="edgeLabel" transform="translate(910.82832, 285.88384)"><g class="label" transform="translate(-48.1640625, -12)"><foreignObject width="96.328125" height="24"><div xmlns="http://www.w3.org/1999/xhtml" style="display: inline-block; white-space: nowrap;"><span class="edgeLabel">SSE stream</span></div></foreignObject></g></g><g class="edgeLabel"><g class="label" transform="translate(0, 0)"><foreignObject width="0" height="0"><div xmlns="http://www.w3.org/1999/xhtml" style="display: inline-block; white-space: nowrap;"><span class="edgeLabel"></span></div></foreignObject></g></g><g class="edgeLabel"><g class="label" transform="translate(0, 0)"><foreignObject width="0" height="0"><div xmlns="http://www.w3.org/1999/xhtml" style="display: inline-block; white-space: nowrap;"><span class="edgeLabel"></span></div></foreignObject></g></g><g class="edgeLabel"><g class="label" transform="translate(0, 0)"><foreignObject width="0" height="0"><div xmlns="http://www.w3.org/1999/xhtml" style="display: inline-block; white-space: nowrap;"><span class="edgeLabel"></span></div></foreignObject></g></g><g class="edgeLabel"><g class="label" transform="translate(0, 0)"><foreignObject width="0" height="0"><div xmlns="http://www.w3.org/1999/xhtml" style="display: inline-block; white-space: nowrap;"><span class="edgeLabel"></span></div></foreignObject></g></g></g><g class="nodes"><g class="node default store flowchart-label" id="flowchart-FS-458" label-offset-y="16.235566072876267" data-node="true" data-id="FS" transform="translate(374.90234375, 960.3477478027344)"><path style="" d="M 0,16.235566072876267 a 115.77734375,16.235566072876267 0,0,0 231.5546875 0 a 115.77734375,16.235566072876267 0,0,0 -231.5546875 0 l 0,98.23556607287627 a 115.77734375,16.235566072876267 0,0,0 231.5546875 0 l 0,-98.23556607287627" transform="translate(-115.77734375,-65.3533491093144)"></path><g class="label" style="" transform="translate(-110.77734375, -36)"><rect></rect><foreignObject width="221.5546875" height="72"><div xmlns="http://www.w3.org/1999/xhtml" style="display: inline-block; white-space: nowrap;"><span class="nodeLabel"><b>Firestore</b><br>profile · learned notes<br>agent briefs</span></div></foreignObject></g></g><g class="node default store flowchart-label" id="flowchart-CACHE-459" label-offset-y="15.462565569861708" data-node="true" data-id="CACHE" transform="translate(1869.73828125, 960.3477478027344)"><path style="" d="M 0,15.462565569861708 a 101.328125,15.462565569861708 0,0,0 202.65625 0 a 101.328125,15.462565569861708 0,0,0 -202.65625 0 l 0,73.46256556986171 a 101.328125,15.462565569861708 0,0,0 202.65625 0 l 0,-73.46256556986171" transform="translate(-101.328125,-52.193848354792564)"></path><g class="label" style="" transform="translate(-96.328125, -24)"><rect></rect><foreignObject width="192.65625" height="48"><div xmlns="http://www.w3.org/1999/xhtml" style="display: inline-block; white-space: nowrap;"><span class="nodeLabel">Perception cache<br><i>shipped in the image</i></span></div></foreignObject></g></g><g class="node default store flowchart-label" id="flowchart-TRACE-460" data-node="true" data-id="TRACE" transform="translate(1012.666015625, 960.3477478027344)"><rect style="" rx="29" ry="29" x="-103.76171875" y="-29" width="207.5234375" height="58"></rect><g class="label" style="" transform="translate(-91.51171875, -24)"><rect></rect><foreignObject width="183.0234375" height="48"><div xmlns="http://www.w3.org/1999/xhtml" style="display: inline-block; white-space: nowrap;"><span class="nodeLabel"><b>Cloud Trace</b><br>OpenTelemetry spans</span></div></foreignObject></g></g><g class="node default g flowchart-label" id="flowchart-FLASH-456" data-node="true" data-id="FLASH" transform="translate(1525.5703125, 706)"><rect class="basic label-container" style="" rx="0" ry="0" x="-183.20703125" y="-41" width="366.4140625" height="82"></rect><g class="label" style="" transform="translate(-178.20703125, -36)"><rect></rect><foreignObject width="356.4140625" height="72"><div xmlns="http://www.w3.org/1999/xhtml" style="display: inline-block; white-space: nowrap;"><span class="nodeLabel"><b>Gemini 3.5 Flash-Lite</b><br>vision · structured output<br>fallback: 3.5-flash → 3-flash-preview</span></div></foreignObject></g></g><g class="node default g flowchart-label" id="flowchart-IMG-457" data-node="true" data-id="IMG" transform="translate(1869.73828125, 706)"><rect class="basic label-container" style="" rx="0" ry="0" x="-110.9609375" y="-29" width="221.921875" height="58"></rect><g class="label" style="" transform="translate(-105.9609375, -24)"><rect></rect><foreignObject width="211.921875" height="48"><div xmlns="http://www.w3.org/1999/xhtml" style="display: inline-block; white-space: nowrap;"><span class="nodeLabel">Gemini 3.1 Flash Image<br><i>build-time dataset</i></span></div></foreignObject></g></g><g class="node default default flowchart-label" id="flowchart-NARR-451" data-node="true" data-id="NARR" transform="translate(1212.798828125, 54)"><rect class="basic label-container" style="" rx="0" ry="0" x="-96.51171875" y="-29" width="193.0234375" height="58"></rect><g class="label" style="" transform="translate(-91.51171875, -24)"><rect></rect><foreignObject width="183.0234375" height="48"><div xmlns="http://www.w3.org/1999/xhtml" style="display: inline-block; white-space: nowrap;"><span class="nodeLabel">narrator<br><i>no extra model call</i></span></div></foreignObject></g></g><g class="node default default flowchart-label" id="flowchart-TOUR-452" data-node="true" data-id="TOUR" transform="translate(1525.5703125, 54)"><rect class="basic label-container" style="" rx="0" ry="0" x="-101.328125" y="-29" width="202.65625" height="58"></rect><g class="label" style="" transform="translate(-96.328125, -24)"><rect></rect><foreignObject width="192.65625" height="48"><div xmlns="http://www.w3.org/1999/xhtml" style="display: inline-block; white-space: nowrap;"><span class="nodeLabel"><b>tourPlanner</b><br>order · time · route</span></div></foreignObject></g></g><g class="node default store flowchart-label" id="flowchart-MAPS-453" data-node="true" data-id="MAPS" transform="translate(1396.466796875, 211)"><rect style="" rx="29" ry="29" x="-84.49609375" y="-29" width="168.9921875" height="58"></rect><g class="label" style="" transform="translate(-72.24609375, -24)"><rect></rect><foreignObject width="144.4921875" height="48"><div xmlns="http://www.w3.org/1999/xhtml" style="display: inline-block; white-space: nowrap;"><span class="nodeLabel">Google Maps<br>directions link</span></div></foreignObject></g></g><g class="node default key flowchart-label" id="flowchart-PERC-447" data-node="true" data-id="PERC" transform="translate(1002.666015625, 453)"><rect class="basic label-container" style="" rx="0" ry="0" x="-183.20703125" y="-65" width="366.4140625" height="130"></rect><g class="label" style="" transform="translate(-178.20703125, -60)"><rect></rect><foreignObject width="356.4140625" height="120"><div xmlns="http://www.w3.org/1999/xhtml" style="display: inline-block; white-space: nowrap;"><span class="nodeLabel"><b>PERCEPTION</b> — the model<br>“what is physically in this drawing?”<br>entrance · kitchen · tub or no tub<br>yard grade · road adjacency<br><i>never sees your weights</i></span></div></foreignObject></g></g><g class="node default key flowchart-label" id="flowchart-JUDGE-448" data-node="true" data-id="JUDGE" transform="translate(810.009765625, 706)"><rect class="basic label-container" style="" rx="0" ry="0" x="-188.0234375" y="-65" width="376.046875" height="130"></rect><g class="label" style="" transform="translate(-183.0234375, -60)"><rect></rect><foreignObject width="366.046875" height="120"><div xmlns="http://www.w3.org/1999/xhtml" style="display: inline-block; white-space: nowrap;"><span class="nodeLabel"><b>JUDGEMENT</b> — the code<br>“how well does that fit <i>you</i>?”<br>weighted dimensions · hard constraints<br>Vastu ⇄ Feng Shui rule tables<br><i>deterministic · reproducible</i></span></div></foreignObject></g></g><g class="node default default flowchart-label" id="flowchart-WATCH-446" data-node="true" data-id="WATCH" transform="translate(280.248046875, 211)"><rect class="basic label-container" style="" rx="0" ry="0" x="-130.2265625" y="-53" width="260.453125" height="106"></rect><g class="label" style="" transform="translate(-125.2265625, -48)"><rect></rect><foreignObject width="250.453125" height="96"><div xmlns="http://www.w3.org/1999/xhtml" style="display: inline-block; white-space: nowrap;"><span class="nodeLabel"><b>watchAgent</b><br>pull new listings<br>read them · decide alone<br><i>silence is a valid outcome</i></span></div></foreignObject></g></g><g class="node default default flowchart-label" id="flowchart-SCHED-445" data-node="true" data-id="SCHED" transform="translate(280.248046875, 54)"><rect class="basic label-container" style="" rx="0" ry="0" x="-77.24609375" y="-29" width="154.4921875" height="58"></rect><g class="label" style="" transform="translate(-72.24609375, -24)"><rect></rect><foreignObject width="144.4921875" height="48"><div xmlns="http://www.w3.org/1999/xhtml" style="display: inline-block; white-space: nowrap;"><span class="nodeLabel"><b>Cloud Scheduler</b><br>06:00 daily</span></div></foreignObject></g></g><g class="node default default flowchart-label" id="flowchart-UI-444" data-node="true" data-id="UI" transform="translate(747.029296875, 211)"><rect class="basic label-container" style="" rx="0" ry="0" x="-144.67578125" y="-41" width="289.3515625" height="82"></rect><g class="label" style="" transform="translate(-139.67578125, -36)"><rect></rect><foreignObject width="279.3515625" height="72"><div xmlns="http://www.w3.org/1999/xhtml" style="display: inline-block; white-space: nowrap;"><span class="nodeLabel"><b>Command center</b><br>Next.js on Cloud Run<br>rank · inspect · teach · tour</span></div></foreignObject></g></g></g></g></g></svg>