<svg id="mermaid-1787878171423" width="100%" xmlns="http://www.w3.org/2000/svg" style="max-width: 100%; height: auto;" viewBox="-8 -8 1530.8046875 655.5745849609375" role="graphics-document document" aria-roledescription="flowchart-v2"><style>#mermaid-1787878171423{font-family:monospace;font-size:16px;fill:#333;}#mermaid-1787878171423 .error-icon{fill:#552222;}#mermaid-1787878171423 .error-text{fill:#552222;stroke:#552222;}#mermaid-1787878171423 .edge-thickness-normal{stroke-width:2px;}#mermaid-1787878171423 .edge-thickness-thick{stroke-width:3.5px;}#mermaid-1787878171423 .edge-pattern-solid{stroke-dasharray:0;}#mermaid-1787878171423 .edge-pattern-dashed{stroke-dasharray:3;}#mermaid-1787878171423 .edge-pattern-dotted{stroke-dasharray:2;}#mermaid-1787878171423 .marker{fill:#333333;stroke:#333333;}#mermaid-1787878171423 .marker.cross{stroke:#333333;}#mermaid-1787878171423 svg{font-family:monospace;font-size:16px;}#mermaid-1787878171423 .label{font-family:monospace;color:#333;}#mermaid-1787878171423 .cluster-label text{fill:#333;}#mermaid-1787878171423 .cluster-label span,#mermaid-1787878171423 p{color:#333;}#mermaid-1787878171423 .label text,#mermaid-1787878171423 span,#mermaid-1787878171423 p{fill:#333;color:#333;}#mermaid-1787878171423 .node rect,#mermaid-1787878171423 .node circle,#mermaid-1787878171423 .node ellipse,#mermaid-1787878171423 .node polygon,#mermaid-1787878171423 .node path{fill:#ECECFF;stroke:#9370DB;stroke-width:1px;}#mermaid-1787878171423 .flowchart-label text{text-anchor:middle;}#mermaid-1787878171423 .node .katex path{fill:#000;stroke:#000;stroke-width:1px;}#mermaid-1787878171423 .node .label{text-align:center;}#mermaid-1787878171423 .node.clickable{cursor:pointer;}#mermaid-1787878171423 .arrowheadPath{fill:#333333;}#mermaid-1787878171423 .edgePath .path{stroke:#333333;stroke-width:2.0px;}#mermaid-1787878171423 .flowchart-link{stroke:#333333;fill:none;}#mermaid-1787878171423 .edgeLabel{background-color:#e8e8e8;text-align:center;}#mermaid-1787878171423 .edgeLabel rect{opacity:0.5;background-color:#e8e8e8;fill:#e8e8e8;}#mermaid-1787878171423 .labelBkg{background-color:rgba(232, 232, 232, 0.5);}#mermaid-1787878171423 .cluster rect{fill:#ffffde;stroke:#aaaa33;stroke-width:1px;}#mermaid-1787878171423 .cluster text{fill:#333;}#mermaid-1787878171423 .cluster span,#mermaid-1787878171423 p{color:#333;}#mermaid-1787878171423 div.mermaidTooltip{position:absolute;text-align:center;max-width:200px;padding:2px;font-family:monospace;font-size:12px;background:hsl(80, 100%, 96.2745098039%);border:1px solid #aaaa33;border-radius:2px;pointer-events:none;z-index:100;}#mermaid-1787878171423 .flowchartTitleText{text-anchor:middle;font-size:18px;fill:#333;}#mermaid-1787878171423 :root{--mermaid-font-family:monospace;}#mermaid-1787878171423 .g&gt;*{fill:#1a73e8!important;stroke:#174ea6!important;color:#fff!important;}#mermaid-1787878171423 .g span{fill:#1a73e8!important;stroke:#174ea6!important;color:#fff!important;}#mermaid-1787878171423 .g tspan{fill:#fff!important;}#mermaid-1787878171423 .store&gt;*{fill:#e8f0fe!important;stroke:#1a73e8!important;color:#174ea6!important;}#mermaid-1787878171423 .store span{fill:#e8f0fe!important;stroke:#1a73e8!important;color:#174ea6!important;}#mermaid-1787878171423 .store tspan{fill:#174ea6!important;}#mermaid-1787878171423 .key&gt;*{fill:#fef7e0!important;stroke:#f9ab00!important;color:#3c4043!important;}#mermaid-1787878171423 .key span{fill:#fef7e0!important;stroke:#f9ab00!important;color:#3c4043!important;}#mermaid-1787878171423 .key tspan{fill:#3c4043!important;}</style><g><marker id="mermaid-1787878171423_flowchart-pointEnd" class="marker flowchart" viewBox="0 0 10 10" refX="6" refY="5" markerUnits="userSpaceOnUse" markerWidth="12" markerHeight="12" orient="auto"><path d="M 0 0 L 10 5 L 0 10 z" class="arrowMarkerPath" style="stroke-width: 1; stroke-dasharray: 1, 0;"></path></marker><marker id="mermaid-1787878171423_flowchart-pointStart" class="marker flowchart" viewBox="0 0 10 10" refX="4.5" refY="5" markerUnits="userSpaceOnUse" markerWidth="12" markerHeight="12" orient="auto"><path d="M 0 5 L 10 10 L 10 0 z" class="arrowMarkerPath" style="stroke-width: 1; stroke-dasharray: 1, 0;"></path></marker><marker id="mermaid-1787878171423_flowchart-circleEnd" class="marker flowchart" viewBox="0 0 10 10" refX="11" refY="5" markerUnits="userSpaceOnUse" markerWidth="11" markerHeight="11" orient="auto"><circle cx="5" cy="5" r="5" class="arrowMarkerPath" style="stroke-width: 1; stroke-dasharray: 1, 0;"></circle></marker><marker id="mermaid-1787878171423_flowchart-circleStart" class="marker flowchart" viewBox="0 0 10 10" refX="-1" refY="5" markerUnits="userSpaceOnUse" markerWidth="11" markerHeight="11" orient="auto"><circle cx="5" cy="5" r="5" class="arrowMarkerPath" style="stroke-width: 1; stroke-dasharray: 1, 0;"></circle></marker><marker id="mermaid-1787878171423_flowchart-crossEnd" class="marker cross flowchart" viewBox="0 0 11 11" refX="12" refY="5.2" markerUnits="userSpaceOnUse" markerWidth="11" markerHeight="11" orient="auto"><path d="M 1,1 l 9,9 M 10,1 l -9,9" class="arrowMarkerPath" style="stroke-width: 2; stroke-dasharray: 1, 0;"></path></marker><marker id="mermaid-1787878171423_flowchart-crossStart" class="marker cross flowchart" viewBox="0 0 11 11" refX="-1" refY="5.2" markerUnits="userSpaceOnUse" markerWidth="11" markerHeight="11" orient="auto"><path d="M 1,1 l 9,9 M 10,1 l -9,9" class="arrowMarkerPath" style="stroke-width: 2; stroke-dasharray: 1, 0;"></path></marker><g class="root"><g class="clusters"><g class="cluster default flowchart-label" id="CR"><rect style="" rx="0" ry="0" x="204.4921875" y="0" width="1135.8515625" height="336"></rect><g class="cluster-label" transform="translate(729.0703125, 0)"><foreignObject width="86.6953125" height="24"><div xmlns="http://www.w3.org/1999/xhtml" style="display: inline-block; white-space: nowrap;"><span class="nodeLabel">Cloud Run</span></div></foreignObject></g></g></g><g class="edgePaths"><path d="M110.578,164L122.064,164C133.549,164,156.521,164,172.173,164C187.826,164,196.159,164,203.609,164C211.059,164,217.626,164,220.909,164L224.192,164" id="L-USER-UI-0" class=" edge-thickness-normal edge-pattern-solid flowchart-link LS-USER LE-UI" style="fill:none;" marker-end="url(#mermaid-1787878171423_flowchart-pointEnd)"></path><path d="M154.492,272L158.659,272C162.826,272,171.159,272,179.492,272C187.826,272,196.159,272,206.82,272C217.481,272,230.469,272,236.964,272L243.458,272" id="L-CRON-WATCH-0" class=" edge-thickness-normal edge-pattern-solid flowchart-link LS-CRON LE-WATCH" style="fill:none;" marker-end="url(#mermaid-1787878171423_flowchart-pointEnd)"></path><path d="M362.005,193L370.638,197.167C379.27,201.333,396.536,209.667,414.471,217.664C432.406,225.661,451.01,233.321,460.313,237.152L469.615,240.982" id="L-UI-PERC-0" class=" edge-thickness-normal edge-pattern-solid flowchart-link LS-UI LE-PERC" style="fill:none;" marker-end="url(#mermaid-1787878171423_flowchart-pointEnd)"></path><path d="M355.086,272L364.872,272C374.658,272,394.229,272,409.707,272C425.184,272,436.567,272,442.258,272L447.95,272" id="L-WATCH-PERC-0" class=" edge-thickness-normal edge-pattern-solid flowchart-link LS-WATCH LE-PERC" style="fill:none;" marker-end="url(#mermaid-1787878171423_flowchart-pointEnd)"></path><path d="M573.148,243L604.754,210.5C636.36,178,699.573,113,756.942,82.718C814.311,52.436,865.838,56.873,891.601,59.091L917.364,61.309" id="L-PERC-JUDGE-0" class=" edge-thickness-normal edge-pattern-solid flowchart-link LS-PERC LE-JUDGE" style="fill:none;" marker-end="url(#mermaid-1787878171423_flowchart-pointEnd)"></path><path d="M922.645,72.989L896.001,74.824C869.358,76.659,816.072,80.33,753.122,82.165C690.172,84,617.559,84,559.395,84C501.23,84,457.516,84,424.49,91.986C391.464,99.972,369.126,115.945,357.958,123.931L346.789,131.917" id="L-JUDGE-UI-0" class=" edge-thickness-normal edge-pattern-solid flowchart-link LS-JUDGE LE-UI" style="fill:none;" marker-end="url(#mermaid-1787878171423_flowchart-pointEnd)"></path><path d="M1067.504,62.477L1077.29,61.731C1087.076,60.985,1106.647,59.492,1122.927,58.746C1139.207,58,1152.196,58,1158.69,58L1165.184,58" id="L-JUDGE-TOUR-0" class=" edge-thickness-normal edge-pattern-solid flowchart-link LS-JUDGE LE-TOUR" style="fill:none;" marker-end="url(#mermaid-1787878171423_flowchart-pointEnd)"></path><path d="M641.816,250.655L661.978,246.212C682.139,241.77,722.462,232.885,774.255,252.409C826.048,271.933,889.312,319.866,920.943,343.833L952.575,367.799" id="L-PERC-GEM-0" class=" edge-thickness-normal edge-pattern-solid flowchart-link LS-PERC LE-GEM" style="fill:none;" marker-start="url(#mermaid-1787878171423_flowchart-pointStart)" marker-end="url(#mermaid-1787878171423_flowchart-pointEnd)"></path><path d="M1296.078,58L1303.456,58C1310.833,58,1325.589,58,1337.133,58C1348.677,58,1357.01,58,1364.46,58C1371.91,58,1378.477,58,1381.76,58L1385.044,58" id="L-TOUR-MAPS-0" class=" edge-thickness-normal edge-pattern-solid flowchart-link LS-TOUR LE-MAPS" style="fill:none;" marker-end="url(#mermaid-1787878171423_flowchart-pointEnd)"></path><path d="M1072.731,81.027L1081.646,82.523C1090.56,84.018,1108.389,87.009,1132.168,134.544C1155.946,182.079,1185.674,274.158,1200.538,320.198L1215.402,366.237" id="L-JUDGE-FS-0" class=" edge-thickness-normal edge-pattern-solid flowchart-link LS-JUDGE LE-FS" style="fill:none;" marker-start="url(#mermaid-1787878171423_flowchart-pointStart)" marker-end="url(#mermaid-1787878171423_flowchart-pointEnd)"></path><path d="M325.097,243L339.881,224.5C354.665,206,384.233,169,420.874,150.5C457.516,132,501.23,132,559.395,132C617.559,132,690.172,132,765.193,132C840.215,132,917.645,132,978.217,132C1038.789,132,1082.504,132,1118.797,171.066C1155.09,210.133,1183.962,288.266,1198.398,327.332L1212.833,366.398" id="L-WATCH-FS-0" class=" edge-thickness-normal edge-pattern-solid flowchart-link LS-WATCH LE-FS" style="fill:none;" marker-end="url(#mermaid-1787878171423_flowchart-pointEnd)"></path><path d="M374.352,164L380.926,164C387.501,164,400.651,164,429.083,164C457.516,164,501.23,164,559.395,164C617.559,164,690.172,164,765.193,164C840.215,164,917.645,164,978.217,164C1038.789,164,1082.504,164,1118.379,197.762C1154.254,231.525,1182.289,299.05,1196.306,332.812L1210.323,366.574" id="L-UI-FS-0" class=" edge-thickness-normal edge-pattern-solid flowchart-link LS-UI LE-FS" style="fill:none;" marker-end="url(#mermaid-1787878171423_flowchart-pointEnd)"></path><path d="M641.933,277.343L662.075,278.452C682.217,279.562,722.501,281.781,774.383,315.033C826.266,348.284,889.746,412.569,921.486,444.711L953.227,476.853" id="L-PERC-CACHE-0" class=" edge-thickness-normal edge-pattern-solid flowchart-link LS-PERC LE-CACHE" style="fill:none;" marker-start="url(#mermaid-1787878171423_flowchart-pointStart)" marker-end="url(#mermaid-1787878171423_flowchart-pointEnd)"></path><path d="M636.641,285.47L657.665,288.558C678.689,291.647,720.737,297.823,777.89,350.46C835.042,403.097,907.299,502.195,943.428,551.743L979.556,601.292" id="L-PERC-TRACE-0" class=" edge-thickness-normal edge-pattern-dotted flowchart-link LS-PERC LE-TRACE" style="fill:none;stroke-width:2px;stroke-dasharray:3;" marker-end="url(#mermaid-1787878171423_flowchart-pointEnd)"></path></g><g class="edgeLabels"><g class="edgeLabel"><g class="label" transform="translate(0, 0)"><foreignObject width="0" height="0"><div xmlns="http://www.w3.org/1999/xhtml" style="display: inline-block; white-space: nowrap;"><span class="edgeLabel"></span></div></foreignObject></g></g><g class="edgeLabel"><g class="label" transform="translate(0, 0)"><foreignObject width="0" height="0"><div xmlns="http://www.w3.org/1999/xhtml" style="display: inline-block; white-space: nowrap;"><span class="edgeLabel"></span></div></foreignObject></g></g><g class="edgeLabel" transform="translate(413.80078125, 218)"><g class="label" transform="translate(-14.44921875, -12)"><foreignObject width="28.8984375" height="24"><div xmlns="http://www.w3.org/1999/xhtml" style="display: inline-block; white-space: nowrap;"><span class="edgeLabel">SSE</span></div></foreignObject></g></g><g class="edgeLabel"><g class="label" transform="translate(0, 0)"><foreignObject width="0" height="0"><div xmlns="http://www.w3.org/1999/xhtml" style="display: inline-block; white-space: nowrap;"><span class="edgeLabel"></span></div></foreignObject></g></g><g class="edgeLabel" transform="translate(762.78515625, 48)"><g class="label" transform="translate(-101.14453125, -12)"><foreignObject width="202.2890625" height="24"><div xmlns="http://www.w3.org/1999/xhtml" style="display: inline-block; white-space: nowrap;"><span class="edgeLabel">cached · 23ms re-rank</span></div></foreignObject></g></g><g class="edgeLabel"><g class="label" transform="translate(0, 0)"><foreignObject width="0" height="0"><div xmlns="http://www.w3.org/1999/xhtml" style="display: inline-block; white-space: nowrap;"><span class="edgeLabel"></span></div></foreignObject></g></g><g class="edgeLabel"><g class="label" transform="translate(0, 0)"><foreignObject width="0" height="0"><div xmlns="http://www.w3.org/1999/xhtml" style="display: inline-block; white-space: nowrap;"><span class="edgeLabel"></span></div></foreignObject></g></g><g class="edgeLabel" transform="translate(762.78515625, 224)"><g class="label" transform="translate(-91.51171875, -12)"><foreignObject width="183.0234375" height="24"><div xmlns="http://www.w3.org/1999/xhtml" style="display: inline-block; white-space: nowrap;"><span class="edgeLabel">floor plan + aerial</span></div></foreignObject></g></g><g class="edgeLabel"><g class="label" transform="translate(0, 0)"><foreignObject width="0" height="0"><div xmlns="http://www.w3.org/1999/xhtml" style="display: inline-block; white-space: nowrap;"><span class="edgeLabel"></span></div></foreignObject></g></g><g class="edgeLabel"><g class="label" transform="translate(0, 0)"><foreignObject width="0" height="0"><div xmlns="http://www.w3.org/1999/xhtml" style="display: inline-block; white-space: nowrap;"><span class="edgeLabel"></span></div></foreignObject></g></g><g class="edgeLabel"><g class="label" transform="translate(0, 0)"><foreignObject width="0" height="0"><div xmlns="http://www.w3.org/1999/xhtml" style="display: inline-block; white-space: nowrap;"><span class="edgeLabel"></span></div></foreignObject></g></g><g class="edgeLabel" transform="translate(762.78515625, 164)"><g class="label" transform="translate(-38.53125, -12)"><foreignObject width="77.0625" height="24"><div xmlns="http://www.w3.org/1999/xhtml" style="display: inline-block; white-space: nowrap;"><span class="edgeLabel">feedback</span></div></foreignObject></g></g><g class="edgeLabel"><g class="label" transform="translate(0, 0)"><foreignObject width="0" height="0"><div xmlns="http://www.w3.org/1999/xhtml" style="display: inline-block; white-space: nowrap;"><span class="edgeLabel"></span></div></foreignObject></g></g><g class="edgeLabel"><g class="label" transform="translate(0, 0)"><foreignObject width="0" height="0"><div xmlns="http://www.w3.org/1999/xhtml" style="display: inline-block; white-space: nowrap;"><span class="edgeLabel"></span></div></foreignObject></g></g></g><g class="nodes"><g class="node default default flowchart-label" id="flowchart-UI-527" data-node="true" data-id="UI" transform="translate(301.921875, 164)"><rect class="basic label-container" style="" rx="0" ry="0" x="-72.4296875" y="-29" width="144.859375" height="58"></rect><g class="label" style="" transform="translate(-67.4296875, -24)"><rect></rect><foreignObject width="134.859375" height="48"><div xmlns="http://www.w3.org/1999/xhtml" style="display: inline-block; white-space: nowrap;"><span class="nodeLabel"><b>Command center</b><br>Next.js</span></div></foreignObject></g></g><g class="node default default flowchart-label" id="flowchart-WATCH-529" data-node="true" data-id="WATCH" transform="translate(301.921875, 272)"><rect class="basic label-container" style="" rx="0" ry="0" x="-53.1640625" y="-29" width="106.328125" height="58"></rect><g class="label" style="" transform="translate(-48.1640625, -24)"><rect></rect><foreignObject width="96.328125" height="48"><div xmlns="http://www.w3.org/1999/xhtml" style="display: inline-block; white-space: nowrap;"><span class="nodeLabel"><b>watchAgent</b><br>autonomous</span></div></foreignObject></g></g><g class="node default key flowchart-label" id="flowchart-PERC-532" data-node="true" data-id="PERC" transform="translate(544.9453125, 272)"><rect class="basic label-container" style="" rx="0" ry="0" x="-91.6953125" y="-29" width="183.390625" height="58"></rect><g class="label" style="" transform="translate(-86.6953125, -24)"><rect></rect><foreignObject width="173.390625" height="48"><div xmlns="http://www.w3.org/1999/xhtml" style="display: inline-block; white-space: nowrap;"><span class="nodeLabel"><b>Perception</b><br>reads the drawings</span></div></foreignObject></g></g><g class="node default key flowchart-label" id="flowchart-JUDGE-533" data-node="true" data-id="JUDGE" transform="translate(995.07421875, 68)"><rect class="basic label-container" style="" rx="0" ry="0" x="-72.4296875" y="-29" width="144.859375" height="58"></rect><g class="label" style="" transform="translate(-67.4296875, -24)"><rect></rect><foreignObject width="134.859375" height="48"><div xmlns="http://www.w3.org/1999/xhtml" style="display: inline-block; white-space: nowrap;"><span class="nodeLabel"><b>Scoring engine</b><br>deterministic</span></div></foreignObject></g></g><g class="node default default flowchart-label" id="flowchart-TOUR-534" data-node="true" data-id="TOUR" transform="translate(1233.28125, 58)"><rect class="basic label-container" style="" rx="0" ry="0" x="-62.796875" y="-17" width="125.59375" height="34"></rect><g class="label" style="" transform="translate(-57.796875, -12)"><rect></rect><foreignObject width="115.59375" height="24"><div xmlns="http://www.w3.org/1999/xhtml" style="display: inline-block; white-space: nowrap;"><span class="nodeLabel"><b>Tour planner</b></span></div></foreignObject></g></g><g class="node default default flowchart-label" id="flowchart-USER-526" data-node="true" data-id="USER" transform="translate(77.24609375, 164)"><rect style="" rx="17" ry="17" x="-33.33203125" y="-17" width="66.6640625" height="34"></rect><g class="label" style="" transform="translate(-24.08203125, -12)"><rect></rect><foreignObject width="48.1640625" height="24"><div xmlns="http://www.w3.org/1999/xhtml" style="display: inline-block; white-space: nowrap;"><span class="nodeLabel">Buyer</span></div></foreignObject></g></g><g class="node default store flowchart-label" id="flowchart-CRON-528" data-node="true" data-id="CRON" transform="translate(77.24609375, 272)"><rect class="basic label-container" style="" rx="0" ry="0" x="-77.24609375" y="-29" width="154.4921875" height="58"></rect><g class="label" style="" transform="translate(-72.24609375, -24)"><rect></rect><foreignObject width="144.4921875" height="48"><div xmlns="http://www.w3.org/1999/xhtml" style="display: inline-block; white-space: nowrap;"><span class="nodeLabel"><b>Cloud Scheduler</b><br>06:00 daily</span></div></foreignObject></g></g><g class="node default g flowchart-label" id="flowchart-GEM-546" data-node="true" data-id="GEM" transform="translate(995.07421875, 400)"><rect class="basic label-container" style="" rx="0" ry="0" x="-106.14453125" y="-29" width="212.2890625" height="58"></rect><g class="label" style="" transform="translate(-101.14453125, -24)"><rect></rect><foreignObject width="202.2890625" height="48"><div xmlns="http://www.w3.org/1999/xhtml" style="display: inline-block; white-space: nowrap;"><span class="nodeLabel"><b>Gemini 3.5 Flash-Lite</b><br>vision</span></div></foreignObject></g></g><g class="node default store flowchart-label" id="flowchart-MAPS-548" data-node="true" data-id="MAPS" transform="translate(1452.57421875, 58)"><rect style="" rx="17" ry="17" x="-62.23046875" y="-17" width="124.4609375" height="34"></rect><g class="label" style="" transform="translate(-52.98046875, -12)"><rect></rect><foreignObject width="105.9609375" height="24"><div xmlns="http://www.w3.org/1999/xhtml" style="display: inline-block; white-space: nowrap;"><span class="nodeLabel">Google Maps</span></div></foreignObject></g></g><g class="node default store flowchart-label" id="flowchart-FS-550" label-offset-y="14.191526156506699" data-node="true" data-id="FS" transform="translate(1233.28125, 421.28729248046875)"><path style="" d="M 0,14.191526156506699 a 82.0625,14.191526156506699 0,0,0 164.125 0 a 82.0625,14.191526156506699 0,0,0 -164.125 0 l 0,72.1915261565067 a 82.0625,14.191526156506699 0,0,0 164.125 0 l 0,-72.1915261565067" transform="translate(-82.0625,-50.287289234760046)"></path><g class="label" style="" transform="translate(-77.0625, -24)"><rect></rect><foreignObject width="154.125" height="48"><div xmlns="http://www.w3.org/1999/xhtml" style="display: inline-block; white-space: nowrap;"><span class="nodeLabel"><b>Firestore</b><br>profile · briefs</span></div></foreignObject></g></g><g class="node default store flowchart-label" id="flowchart-CACHE-556" label-offset-y="14.191526156506699" data-node="true" data-id="CACHE" transform="translate(995.07421875, 517.2872848510742)"><path style="" d="M 0,14.191526156506699 a 82.0625,14.191526156506699 0,0,0 164.125 0 a 82.0625,14.191526156506699 0,0,0 -164.125 0 l 0,48.1915261565067 a 82.0625,14.191526156506699 0,0,0 164.125 0 l 0,-48.1915261565067" transform="translate(-82.0625,-38.287289234760046)"></path><g class="label" style="" transform="translate(-77.0625, -12)"><rect></rect><foreignObject width="154.125" height="24"><div xmlns="http://www.w3.org/1999/xhtml" style="display: inline-block; white-space: nowrap;"><span class="nodeLabel">Perception cache</span></div></foreignObject></g></g><g class="node default store flowchart-label" id="flowchart-TRACE-558" data-node="true" data-id="TRACE" transform="translate(995.07421875, 622.5745697021484)"><rect style="" rx="17" ry="17" x="-62.23046875" y="-17" width="124.4609375" height="34"></rect><g class="label" style="" transform="translate(-52.98046875, -12)"><rect></rect><foreignObject width="105.9609375" height="24"><div xmlns="http://www.w3.org/1999/xhtml" style="display: inline-block; white-space: nowrap;"><span class="nodeLabel"><b>Cloud Trace</b></span></div></foreignObject></g></g></g></g></g></svg>